<?xml version="1.0" standalone="no"?>
<!DOCTYPE svg PUBLIC "-//W3C//DTD SVG 1.1//EN" "http://www.w3.org/Graphics/SVG/1.1/DTD/svg11.dtd" >
<svg xmlns="http://www.w3.org/2000/svg">
<metadata></metadata>
<defs>
<font id="OutageRegular" horiz-adv-x="1705" >
<font-face units-per-em="2048" ascent="1536" descent="-512" />
<missing-glyph horiz-adv-x="696" />
<glyph horiz-adv-x="0" />
<glyph horiz-adv-x="2048" />
<glyph unicode=" "  horiz-adv-x="696" />
<glyph unicode="&#x09;" horiz-adv-x="696" />
<glyph unicode="&#xa0;" horiz-adv-x="696" />
<glyph unicode="!" horiz-adv-x="677" d="M160 39v283q0 39 39 38h282q39 0 39 -38v-283q0 -39 -39 -39h-282q-39 0 -39 39zM162 1395q-2 16 9 27.5t28 11.5h282q16 0 27.5 -11.5t9.5 -27.5l-37 -893q0 -16 -11 -27.5t-28 -11.5h-204q-16 0 -27.5 11t-11.5 28z" />
<glyph unicode="&#x22;" horiz-adv-x="1021" d="M152 1544q-2 16 8 27.5t26 11.5h258q16 0 26.5 -11t10.5 -28l-35 -473q-2 -16 -13 -26.5t-27 -10.5h-179q-16 0 -27.5 10.5t-13.5 26.5zM543 1544q0 39 37 39h256q16 0 27 -11t9 -28l-34 -473q-2 -16 -13.5 -26.5t-27.5 -10.5h-179q-16 0 -27 10.5t-13 26.5z" />
<glyph unicode="#" horiz-adv-x="1792" d="M109 256l32 258q2 16 14.5 26.5t28.5 10.5h189l35 319h-189q-16 0 -26.5 11.5t-6.5 27.5l33 256q4 39 43 39h189l22 191q4 16 15.5 27.5t27.5 11.5h279q16 0 26 -11.5t6 -27.5l-22 -191l-43 -346l-12 -106l-76 -623l-10 -92q-2 -16 -14.5 -26.5t-28.5 -10.5h-279 q-16 0 -25.5 10t-7.5 27l23 180h-189q-16 0 -26.5 11.5t-7.5 27.5zM963 37l22 180l41 348l35 293l43 346l22 191q2 16 14.5 27.5t28.5 11.5h279q16 0 25.5 -11.5t7.5 -27.5l-23 -191h191q16 0 26.5 -10t7.5 -27l-32 -258q-2 -16 -14.5 -27.5t-28.5 -11.5h-193l-35 -319h193 q16 0 25.5 -10.5t7.5 -26.5l-33 -258q-2 -16 -14.5 -26.5t-28.5 -10.5h-191l-22 -182q-2 -16 -14.5 -26.5t-28.5 -10.5h-279q-16 0 -25 10t-7 27z" />
<glyph unicode="$" horiz-adv-x="1331" d="M121 39v248q0 16 11 27.5t28 11.5h405v245h-41h-82h-82q-49 0 -93 18.5t-76.5 51.5t-51 76t-18.5 92v18v359v10q0 49 18.5 92t51 76t76.5 51.5t93 18.5h193v100q0 16 10 27.5t27 11.5h155q16 0 27.5 -11.5t11.5 -27.5v-100h351q16 0 26 -10.5t10 -26.5v-254 q0 -16 -10 -26.5t-26 -10.5h-363v-244h41h82h82q49 0 93 -18.5t76 -51t51.5 -75.5t19.5 -92v-15v-348v-22q0 -49 -19.5 -93.5t-51.5 -77t-76 -51t-93 -18.5h-193v-100q0 -16 -11 -27.5t-28 -11.5h-155q-16 0 -26.5 11t-10.5 28v100h-393q-39 0 -39 39zM442 901 q0 -16 10.5 -27.5t26.5 -11.5h86v244h-86q-16 0 -26.5 -11.5t-10.5 -27.5v-166zM772 326h86q16 0 26.5 10t10.5 26v170q0 16 -10.5 27.5t-26.5 11.5h-86v-245z" />
<glyph unicode="%" horiz-adv-x="1609" d="M139 893v432q0 45 32 77t77 32h84h43h31h26h94q45 0 77 -32t32 -77v-432q0 -45 -32 -76t-77 -31h-94h-26h-31h-43h-84q-45 0 -77 31t-32 76zM225.5 9q-6.5 9 3.5 24l789 1368q8 14 24.5 23.5t32.5 9.5h285q16 0 21 -9.5t-3 -23.5l-788 -1368q-8 -14 -24.5 -23.5 t-33.5 -9.5h-284q-16 0 -22.5 9zM309 956h154v308h-154v-308zM975 109v430q0 45 31.5 76.5t76.5 31.5h84h43h31h29h92q45 0 76.5 -31.5t31.5 -76.5v-430q0 -45 -31.5 -77t-76.5 -32h-92h-29h-31h-43h-84q-45 0 -76.5 31.5t-31.5 77.5zM1145 170h155v307h-155v-307z" />
<glyph unicode="&#x26;" horiz-adv-x="1480" d="M156 240v239v39q0 16 7 35.5t17 32.5l25 28l18 23l19 20q10 12 20 28.5t10 33.5q2 16 -8 30.5t-20 26.5l-66 84q-10 12 -16 31.5t-6 36.5v266q0 49 18.5 93t51 76t76.5 51.5t93 19.5h819q16 0 27.5 -11.5t11.5 -27.5v-236q0 -16 -11 -26.5t-28 -10.5h-679 q-16 0 -27.5 -11t-11.5 -28v-178q0 -16 11 -27.5t28 -11.5h786q16 0 27.5 -10t11.5 -27v-225q0 -16 -11.5 -26.5t-27.5 -10.5h-29h-2q-16 0 -26.5 -11t-10.5 -28v-288q0 -49 -19.5 -93.5t-51 -77t-75.5 -51t-93 -18.5h-619q-49 0 -93 18.5t-76.5 51t-51 76.5t-18.5 94z M483 313h441v281h-441v-281z" />
<glyph unicode="'" horiz-adv-x="595" d="M131 1544q-2 16 8.5 27.5t26.5 11.5h258q16 0 26.5 -11t10.5 -28l-35 -473q-2 -16 -13.5 -26.5t-27.5 -10.5h-178q-16 0 -27.5 10.5t-13.5 26.5z" />
<glyph unicode="(" horiz-adv-x="892" d="M160 -12v37v1384v39v37v119v36v17v16q0 49 18.5 93t51 76t76.5 51.5t93 19.5h31h31h39h12h39h39h92h37q16 0 27.5 -11.5t11.5 -27.5v-39v-178v-39q0 -16 -11.5 -26.5t-27.5 -10.5h-37h-139q-16 0 -27.5 -11t-11.5 -28v-1651q0 -16 11 -26t28 -10h139h37q16 0 27.5 -11.5 t11.5 -27.5v-39v-178v-39q0 -16 -11.5 -26.5t-27.5 -10.5h-37h-92h-39h-39h-12h-39h-31h-31q-49 0 -93 18.5t-76.5 51t-51 75.5t-18.5 92v31v29v39v90v39z" />
<glyph unicode=")" horiz-adv-x="890" d="M137 -184q0 16 11.5 27.5t27.5 11.5h37h139q16 0 27.5 10t11.5 26v1651q0 16 -11 27.5t-28 11.5h-139h-37q-16 0 -27.5 10.5t-11.5 26.5v39v178v39q0 16 11.5 27.5t27.5 11.5h37h92h39h37h14h39h31h31q49 0 93 -19.5t75.5 -51.5t51 -76t19.5 -93v-16v-17v-36v-119v-37 v-39v-1384v-37v-39v-90v-39v-29v-31q0 -49 -19.5 -92t-51 -75.5t-75.5 -51t-93 -18.5h-31h-31h-39h-14h-37h-39h-92h-37q-16 0 -27.5 10t-11.5 27v39v178v39z" />
<glyph unicode="*" horiz-adv-x="821" d="M74 1331l37 121q4 16 17 21.5t28 -3.5l196 -98l-37 217q-4 16 6.5 26.5t26.5 10.5h127q16 0 25.5 -10t5.5 -27l-35 -207l178 111q14 8 27.5 4t19.5 -20l47 -117q6 -16 0 -28.5t-22 -16.5l-215 -45l166 -146q10 -10 10 -24.5t-12 -24.5l-99 -82q-12 -10 -26.5 -7t-22.5 18 l-106 190l-92 -199q-6 -16 -19.5 -20t-28.5 6l-104 72q-31 20 -6 49l151 158l-217 28q-16 4 -23 15.5t-3 27.5z" />
<glyph unicode="+" horiz-adv-x="1302" d="M49 520v271q0 39 39 38h344q16 0 27.5 11.5t11.5 27.5v344q0 16 10.5 27.5t26.5 11.5h285q16 0 27 -11t11 -28v-344q0 -16 10.5 -27.5t26.5 -11.5h346q16 0 27.5 -11t11.5 -27v-271q0 -16 -11 -27.5t-28 -11.5h-346q-16 0 -26.5 -10t-10.5 -27v-358q0 -16 -11 -27.5 t-27 -11.5h-285q-16 0 -26.5 11.5t-10.5 27.5v358q0 16 -11 26.5t-28 10.5h-344q-16 0 -27.5 11.5t-11.5 27.5z" />
<glyph unicode="," horiz-adv-x="630" d="M141 39v283q0 39 39 38h283q39 0 39 -38v-238v-45q0 -16 -6.5 -36.5t-14.5 -35.5l-82 -123q-10 -14 -26.5 -23t-32.5 -9h-141q-16 0 -21.5 9t4.5 23l82 123q8 14 9 23.5t-7 9.5h-86q-39 0 -39 39z" />
<glyph unicode="-" horiz-adv-x="843" d="M164 520v271q0 39 39 38h442q16 0 27.5 -11t11.5 -27v-271q0 -16 -11 -27.5t-28 -11.5h-442q-16 0 -27.5 11.5t-11.5 27.5z" />
<glyph unicode="." horiz-adv-x="681" d="M164 39v283q0 39 39 38h282q39 0 39 -38v-283q0 -39 -39 -39h-282q-39 0 -39 39z" />
<glyph unicode="/" horiz-adv-x="800" d="M55 -90l353 1685q4 16 16 24.5t29 4.5l264 -55q16 -4 25.5 -16.5t5.5 -28.5l-353 -1684q-4 -16 -16 -25.5t-29 -4.5l-264 55q-16 4 -25.5 16.5t-5.5 28.5z" />
<glyph unicode="0" horiz-adv-x="1411" d="M158 240v954q0 49 18.5 93t51 76t76.5 51.5t93 19.5h185h96h67h64h205q49 0 93 -19.5t75.5 -51.5t51 -76t19.5 -93v-954q0 -49 -19.5 -93.5t-51 -77t-75.5 -51t-93 -18.5h-205h-64h-67h-96h-185q-49 0 -93 18.5t-76.5 51t-51 76.5t-18.5 94zM506 348h399v737h-399v-737z " />
<glyph unicode="1" horiz-adv-x="763" d="M82 985v287q0 16 9 33.5t22 27.5l100 78q12 10 32.5 16.5t37.5 6.5h47h235q39 0 39 -39v-1356q0 -39 -39 -39h-282q-39 0 -39 39v1012q0 8 -9.5 7t-21.5 -11l-100 -78q-12 -10 -21.5 -5t-9.5 21z" />
<glyph unicode="2" horiz-adv-x="1396" d="M154 39v199v2v22v348v15q0 49 18 92t51 75.5t77 51t93 18.5h82h82h221h101q16 0 27.5 11.5t11.5 27.5v166q0 16 -11.5 27.5t-27.5 11.5h-109h-534q-16 0 -26.5 10t-10.5 27v252q0 16 10 27.5t27 11.5h600h77h86q49 0 92.5 -19.5t76 -51.5t51 -76t18.5 -93v-10v-47 q2 -2 2 -7v-522q0 -16 -11 -26.5t-28 -10.5h-201h-43h-38h-82h-299h-25q-29 0 -37 -32v-183q6 -31 37 -30h41h647q16 0 26.5 -11.5t10.5 -27.5v-248q0 -16 -10 -27.5t-27 -11.5h-643h-88h-76h-2h-198q-39 0 -39 39z" />
<glyph unicode="3" horiz-adv-x="1413" d="M164 39v92v16v129q0 16 11 26.5t28 10.5h164h368h148q16 0 26.5 11.5t10.5 27.5v176q0 16 -10.5 27.5t-26.5 11.5h-162h-260h-127q-16 0 -26.5 10.5t-10.5 26.5v225q0 16 10 26.5t27 10.5h407h142q16 0 26.5 11.5t10.5 27.5v178q0 16 -10.5 27.5t-26.5 11.5h-680 q-16 0 -27.5 10.5t-11.5 26.5v236q0 39 39 39h819q49 0 93 -19.5t76 -51.5t51.5 -76t19.5 -93v-266q0 -16 -7.5 -36t-17.5 -32l-43 -57l-20 -27q-10 -10 -20.5 -25.5t-10.5 -31.5q2 -16 12 -32.5t21 -29.5l18 -20l16 -23l25 -28q10 -12 18.5 -31.5t8.5 -36.5v-278 q0 -49 -19.5 -93.5t-51.5 -77t-76 -51t-93 -18.5h-317h-406h-96q-39 0 -39 39z" />
<glyph unicode="4" horiz-adv-x="1333" d="M76 651v228v30v230v55v201q0 39 39 39h282q39 0 39 -39v-224v-71v-191v-98q0 -16 11.5 -27.5t27.5 -11.5h297q16 0 27.5 11.5t11.5 27.5v98v45v201v240q0 16 10 27.5t27 11.5h285q16 0 27 -11.5t11 -27.5v-365v-121v-870q0 -16 -11 -27.5t-27 -11.5h-285 q-16 0 -26.5 11.5t-10.5 27.5v336q0 16 -11.5 26.5t-27.5 10.5h-457q-49 0 -93 19.5t-76.5 51t-51 75.5t-18.5 93z" />
<glyph unicode="5" horiz-adv-x="1396" d="M164 39v248q0 16 11 27.5t28 11.5h647h41q16 0 26.5 10t10.5 26v170q0 16 -10.5 27.5t-26.5 11.5h-25h-299h-82h-39h-43h-200q-16 0 -27.5 10.5t-11.5 26.5v787q0 39 39 39h200h43h43h78h600q16 0 26.5 -11.5t10.5 -27.5v-252q0 -16 -10 -26.5t-27 -10.5h-534h-109 q-16 0 -27.5 -11.5t-11.5 -27.5v-166q0 -16 11.5 -27.5t27.5 -11.5h101h221h82h82q49 0 93 -18.5t75.5 -51t51 -75.5t19.5 -92v-15v-348v-22q0 -49 -19.5 -93.5t-51 -77t-75.5 -51t-93 -18.5h-76h-88h-643q-16 0 -27.5 11.5t-11.5 27.5z" />
<glyph unicode="6" horiz-adv-x="1331" d="M162 240v102v61v992q0 39 39 39h282q39 0 39 -39v-336q0 -16 11.5 -26.5t27.5 -10.5h457q49 0 93 -19.5t76 -51t51 -76t19 -93.5v-542q0 -49 -19 -93.5t-51 -77t-76 -51t-93 -18.5h-617q-49 0 -93 18.5t-76.5 51t-51 76.5t-18.5 94zM510 326h399v360h-399v-360z" />
<glyph unicode="7" horiz-adv-x="1243" d="M92 1137v258q0 39 39 39h90h434h482q16 0 26.5 -11.5t10.5 -27.5v-271q0 -16 -5.5 -36.5t-13.5 -34.5l-98 -191l-406 -768l-33 -61q-6 -14 -22 -23.5t-33 -9.5h-325q-37 0 -23 33l70 133l485 934h-133h-340h-166q-16 0 -27.5 10t-11.5 27z" />
<glyph unicode="8" horiz-adv-x="1402" d="M154 240v88v190q0 16 7 35.5t17 32.5l25 28l18 23l19 20q10 12 20 28.5t10 33.5q2 16 -8 31.5t-20 25.5l-21 27l-45 57q-10 12 -16 31.5t-6 36.5v266q0 49 18 93t51 76t77 51.5t93 19.5h221h80h152h166q49 0 93 -19.5t75.5 -51.5t51 -76t19.5 -93v-266q0 -16 -7 -36 t-17 -32l-43 -57l-21 -27q-10 -10 -20 -25.5t-10 -31.5q2 -16 12 -32.5t20 -29.5l19 -20l16 -23l27 -28q10 -12 17 -31.5t7 -36.5v-190v-88q0 -10 -1 -19.5t-3 -19.5q0 -6 -2 -11q-2 -16 -10 -34q-2 -6 -6 -15q-6 -14 -15 -28q-4 -4 -4 -9q-2 -2 -3 -2t-3 -2q-4 -8 -8 -12 q-2 -6 -8 -8q-2 -4 -8 -10l-9 -9q-4 -2 -8 -6t-6 -5t-6 -5q-2 -2 -3 -2t-3 -2l-8 -4q-16 -10 -36 -19.5t-42 -13.5h-10q-10 -2 -18.5 -3t-18.5 -1h-619q-16 0 -24 2q-45 4 -84 24.5t-69 52.5t-46 73t-16 88zM494 313h415v15v239v27h-415v-27v-239v-15zM494 866h38h181h159 h37v39v164v53h-415v-53v-164v-39z" />
<glyph unicode="9" horiz-adv-x="1329" d="M74 651v543q0 49 18.5 93t51 76t76.5 51.5t93 19.5h424h193q49 0 93 -19.5t75.5 -51.5t51 -76t19.5 -93v-102v-62v-991q0 -16 -11 -27.5t-28 -11.5h-284q-16 0 -26.5 11.5t-10.5 27.5v336q0 16 -11.5 26.5t-27.5 10.5h-457q-49 0 -93 19.5t-76.5 51t-51 75.5t-18.5 93z M422 748h399v360h-399v-360z" />
<glyph unicode=":" horiz-adv-x="681" d="M164 39v283q0 39 39 38h282q39 0 39 -38v-283q0 -39 -39 -39h-282q-39 0 -39 39zM164 639v285q0 16 11 27.5t28 11.5h282q16 0 27.5 -11.5t11.5 -27.5v-285q0 -16 -11 -26.5t-28 -10.5h-282q-16 0 -27.5 10.5t-11.5 26.5z" />
<glyph unicode=";" horiz-adv-x="632" d="M135 39v283q0 39 39 38h283q39 0 39 -38v-238v-45q0 -16 -6.5 -36.5t-14.5 -35.5l-82 -123q-10 -14 -26.5 -23t-32.5 -9h-141q-16 0 -21.5 9t4.5 23l82 123q8 14 9 23.5t-7 9.5h-86q-39 0 -39 39zM135 639v285q0 16 11.5 27.5t27.5 11.5h283q16 0 27.5 -11.5t11.5 -27.5 v-285q0 -16 -11.5 -26.5t-27.5 -10.5h-283q-16 0 -27.5 10.5t-11.5 26.5z" />
<glyph unicode="&#x3c;" horiz-adv-x="1292" d="M25 502v55v166v55q0 16 10 31.5t24 21.5l1041 435q35 14 35 -25v-221q0 -16 -9.5 -30.5t-25.5 -20.5l-813 -328l813 -330q16 -6 25.5 -20.5t9.5 -30.5v-221q0 -39 -35 -25l-1041 435q-14 6 -24 21t-10 32z" />
<glyph unicode="=" horiz-adv-x="1404" d="M164 264v244q0 39 39 39h1001q16 0 27.5 -11.5t11.5 -27.5v-244q0 -16 -11 -27.5t-28 -11.5h-1001q-16 0 -27.5 11.5t-11.5 27.5zM164 791v243q0 16 11 27.5t28 11.5h1001q16 0 27.5 -11t11.5 -28v-243q0 -16 -11 -27.5t-28 -11.5h-1001q-39 0 -39 39z" />
<glyph unicode="&#x3e;" horiz-adv-x="1294" d="M160 39v221q0 16 10 30.5t25 20.5l813 330l-813 328q-14 6 -24.5 20.5t-10.5 30.5v221q0 16 10 23.5t25 1.5l1040 -435q35 -14 35 -53v-55v-166v-55q0 -39 -35 -53l-1040 -435q-14 -6 -24.5 1.5t-10.5 23.5z" />
<glyph unicode="?" horiz-adv-x="1099" d="M135 1124v271q0 39 39 39h598q49 0 92 -19.5t76 -51.5t51.5 -76t18.5 -93v-694q0 -16 -10.5 -27.5t-26.5 -11.5h-707q-16 0 -27.5 11t-11.5 28v243q0 16 11.5 27.5t27.5 11.5h344q39 0 39 39v228q0 16 -11 26t-28 10h-436q-16 0 -27.5 11.5t-11.5 27.5zM227 39v283 q0 16 11.5 27t27.5 11h285q16 0 26.5 -11t10.5 -27v-283q0 -16 -10.5 -27.5t-26.5 -11.5h-285q-16 0 -27.5 11.5t-11.5 27.5z" />
<glyph unicode="@" horiz-adv-x="1521" d="M160 236v36v881v37q0 49 18.5 93t51 76t76.5 51.5t93 19.5h725q49 0 93.5 -19.5t76 -51.5t51 -76t19.5 -93v-506q0 -16 -11.5 -27.5t-27.5 -11.5h-477q-39 0 -39 39v360q0 16 -11.5 26.5t-27.5 10.5h-211q-16 0 -27.5 -10t-11.5 -27v-663q0 -16 11.5 -26.5t27.5 -10.5 h766q16 0 27.5 -11t11.5 -28v-270q0 -16 -11.5 -27.5t-27.5 -11.5h-926q-49 0 -93 18.5t-76.5 51t-51 76.5t-18.5 94z" />
<glyph unicode="A" horiz-adv-x="1525" d="M162 39v1155q0 49 18.5 93t51 76t76.5 51.5t93 19.5h725q49 0 93.5 -19.5t76 -51.5t51 -76t19.5 -93v-1155q0 -16 -11.5 -27.5t-27.5 -11.5h-285q-16 0 -27 11.5t-11 27.5v367q0 16 -10.5 27t-26.5 11h-406q-16 0 -27.5 -11t-11.5 -27v-367q0 -39 -39 -39h-282 q-39 0 -39 39zM522 752h482v360h-482v-360z" />
<glyph unicode="B" horiz-adv-x="1521" d="M164 39v1356q0 39 39 39h925q49 0 93.5 -19.5t76 -51.5t51 -76t19.5 -93v-266q0 -16 -7 -36t-18 -32l-88 -112q-10 -12 -9 -31t11 -29l86 -102q10 -12 17.5 -31.5t7.5 -36.5v-278q0 -49 -19.5 -93.5t-51 -77t-75.5 -51t-94 -18.5h-925q-39 0 -39 39zM489 313h551v281 h-551v-281zM489 866h551v256h-551v-256z" />
<glyph unicode="C" horiz-adv-x="1415" d="M158 240v36v150v477v133v158q0 49 18.5 93t51 76t76.5 51.5t93 19.5h37h780q16 0 27.5 -11.5t11.5 -27.5v-271q0 -16 -11 -27.5t-28 -11.5h-657q-16 0 -27.5 -10t-11.5 -26v-664q0 -16 11.5 -26.5t27.5 -10.5h657q16 0 27.5 -11t11.5 -28v-270q0 -16 -11 -27.5t-28 -11.5 h-428h-352h-37q-49 0 -93 18.5t-76.5 51t-51 76.5t-18.5 94z" />
<glyph unicode="D" horiz-adv-x="1525" d="M164 39v1356q0 39 39 39h925q49 0 93.5 -19.5t76 -51.5t51 -76t19.5 -93v-954q0 -49 -19.5 -93.5t-51 -77t-75.5 -51t-94 -18.5h-925q-39 0 -39 39zM524 348h482v737h-482v-737z" />
<glyph unicode="E" horiz-adv-x="1415" d="M158 240v954q0 49 18.5 93t51 76t76.5 51.5t93 19.5h817q16 0 27.5 -11.5t11.5 -27.5v-258q0 -16 -11 -26.5t-28 -10.5h-686q-10 0 -10 -10v-224q0 -8 10 -8h584q16 0 27.5 -11t11.5 -28v-205q0 -39 -39 -39h-584q-10 0 -10 -10v-221q0 -10 10 -10h686q16 0 27.5 -11.5 t11.5 -27.5v-256q0 -16 -11 -27.5t-28 -11.5h-817q-49 0 -93 18.5t-76.5 51t-51 76.5t-18.5 94z" />
<glyph unicode="F" horiz-adv-x="1300" d="M164 39v1356q0 39 39 39h1018q16 0 27.5 -11.5t11.5 -27.5v-271q0 -16 -11.5 -27.5t-27.5 -11.5h-686q-10 0 -11 -8v-223q0 -10 11 -10h520q16 0 26.5 -11.5t10.5 -27.5v-256q0 -16 -10.5 -27.5t-26.5 -11.5h-520q-10 0 -11 -10v-461q0 -39 -39 -39h-282q-39 0 -39 39z " />
<glyph unicode="G" horiz-adv-x="1509" d="M160 240v954q0 49 18.5 93t51 76t76.5 51.5t93 19.5h846q16 0 27.5 -11.5t11.5 -27.5v-271q0 -16 -11 -27.5t-28 -11.5h-686q-16 0 -27.5 -10t-11.5 -26v-664q0 -16 11.5 -26.5t27.5 -10.5h406q16 0 26 10.5t10 26.5v358q0 16 11.5 27.5t27.5 11.5h285q16 0 27.5 -11 t11.5 -28v-503q0 -49 -19.5 -93.5t-51 -77t-75.5 -51t-94 -18.5h-725q-49 0 -93 18.5t-76.5 51t-51 76.5t-18.5 94z" />
<glyph unicode="H" horiz-adv-x="1529" d="M164 39v1356q0 39 39 39h282q39 0 39 -39v-459q0 -39 39 -39h406q16 0 26.5 11.5t10.5 27.5v459q0 16 11 27.5t27 11.5h285q16 0 27.5 -11.5t11.5 -27.5v-1356q0 -16 -11 -27.5t-28 -11.5h-285q-16 0 -27 11.5t-11 27.5v473q0 16 -10.5 26.5t-26.5 10.5h-406 q-16 0 -27.5 -10.5t-11.5 -26.5v-473q0 -39 -39 -39h-282q-39 0 -39 39z" />
<glyph unicode="I" horiz-adv-x="681" d="M164 39v1356q0 39 39 39h282q39 0 39 -39v-1356q0 -39 -39 -39h-282q-39 0 -39 39z" />
<glyph unicode="J" horiz-adv-x="1300" d="M45 240v438q0 39 39 39h283q39 0 39 -39v-293q0 -16 11 -26.5t27 -10.5h297q16 0 27.5 10.5t11.5 26.5v1010q0 16 10.5 27.5t26.5 11.5h285q16 0 27.5 -11.5t11.5 -27.5v-1155q0 -49 -19.5 -93.5t-51.5 -77t-76 -51t-93 -18.5h-616q-49 0 -93.5 18.5t-77 51t-51 76.5 t-18.5 94z" />
<glyph unicode="K" horiz-adv-x="1558" d="M164 39v1356q0 39 39 39h282q39 0 39 -39v-609l529 619q10 12 28.5 20.5t34.5 8.5h340q16 0 20 -8q1 -2 0 -5q0 -7 -8 -16l-489 -576q-6 -6 -2 -14l479 -782q8 -14 2 -23.5t-22 -9.5h-340q-16 0 -32.5 9t-25.5 24l-309 559q-6 10 -10 2l-170 -186q-10 -10 -17.5 -30 t-7.5 -36v-303q0 -39 -39 -39h-282q-39 0 -39 39z" />
<glyph unicode="L" horiz-adv-x="1161" d="M164 39v1356q0 39 39 39h282q39 0 39 -39v-1010q0 -16 11.5 -26.5t27.5 -10.5h524q16 0 26.5 -11t10.5 -28v-270q0 -16 -10 -27.5t-27 -11.5h-884q-39 0 -39 39z" />
<glyph unicode="M" horiz-adv-x="1837" d="M164 39v1356q0 39 39 39h1235q49 0 93 -19.5t75.5 -51.5t51 -76t19.5 -93v-1155q0 -16 -11 -27.5t-28 -11.5h-284q-16 0 -26.5 11.5t-10.5 27.5v1046h-230v-1046q0 -16 -10 -27.5t-26 -11.5h-258q-16 0 -27.5 11.5t-11.5 27.5v1046h-230v-1046q0 -39 -39 -39h-282 q-39 0 -39 39z" />
<glyph unicode="N" horiz-adv-x="1527" d="M164 39v1356q0 39 39 39h925q49 0 93.5 -19.5t76 -51.5t51 -76t19.5 -93v-1155q0 -16 -11 -27.5t-28 -11.5h-285q-16 0 -26 11.5t-10 27.5v1010q0 16 -11.5 26t-27.5 10h-406q-16 0 -27.5 -10t-11.5 -26v-1010q0 -39 -39 -39h-282q-39 0 -39 39z" />
<glyph unicode="O" horiz-adv-x="1521" d="M160 240v954q0 49 18.5 93t51 76t76.5 51.5t93 19.5h725q49 0 93.5 -19.5t76 -51.5t51 -76t19.5 -93v-954q0 -49 -19.5 -93.5t-51 -77t-75.5 -51t-94 -18.5h-725q-49 0 -93 18.5t-76.5 51t-51 76.5t-18.5 94zM520 348h481v737h-481v-737z" />
<glyph unicode="P" horiz-adv-x="1333" d="M164 39v1356q0 39 39 39h817q49 0 93 -19.5t76 -51.5t51.5 -76t19.5 -93v-543q0 -49 -19.5 -93t-51.5 -75.5t-76 -51t-93 -19.5h-457q-16 0 -27.5 -10.5t-11.5 -26.5v-336q0 -39 -39 -39h-282q-39 0 -39 39zM512 745h399v363h-399v-363z" />
<glyph unicode="Q" horiz-adv-x="1470" d="M135 240v954q0 49 18.5 93t51.5 76t77 51.5t93 19.5h725q49 0 92 -19.5t75.5 -51.5t51 -76t18.5 -93v-954q0 -49 -18.5 -93.5t-51 -77t-75.5 -51t-92 -18.5h-182v-195q0 -16 -11.5 -27t-27.5 -11h-285q-16 0 -26.5 11t-10.5 27v195h-182q-49 0 -93 18.5t-77 51 t-51.5 76.5t-18.5 94zM496 334h481v751h-481v-751z" />
<glyph unicode="R" horiz-adv-x="1540" d="M143 39v1356q0 39 39 39h926q49 0 93 -19.5t76 -51.5t51.5 -76t19.5 -93v-539q0 -78 -46.5 -140t-117.5 -85l-6 -2q-14 -4 -7 -12l3 -4l219 -379q5 -8 5 -15q0 -4 -3 -8q-6 -10 -23 -10h-325q-16 0 -33 9t-25 24l-217 389q-4 8 -14 8h-244q-10 0 -10 -10v-381 q0 -39 -39 -39h-283q-39 0 -39 39zM492 752h493v348h-493v-348z" />
<glyph unicode="S" horiz-adv-x="1400" d="M158 39v248q0 16 11 27.5t28 11.5h696q16 0 27.5 10t11.5 26v170q0 16 -11.5 27.5t-27.5 11.5h-496q-49 0 -93 18.5t-76.5 51.5t-51 76t-18.5 92v385q0 49 18.5 93t51 76t76.5 51.5t93 19.5h772q39 0 39 -39v-252q0 -16 -11 -26.5t-28 -10.5h-653q-16 0 -26.5 -11.5 t-10.5 -27.5v-166q0 -16 10.5 -27.5t26.5 -11.5h498q49 0 93 -18.5t75.5 -51t51 -75.5t19.5 -92v-385q0 -49 -19.5 -93.5t-51 -77t-75.5 -51t-93 -18.5h-817q-39 0 -39 39z" />
<glyph unicode="T" horiz-adv-x="1259" d="M82 1124v271q0 39 39 39h291h75h285h76h291q16 0 27.5 -11.5t11.5 -27.5v-271q0 -16 -11.5 -27.5t-27.5 -11.5h-291q-16 0 -27.5 -10t-11.5 -26v-1010q0 -16 -10.5 -27.5t-26.5 -11.5h-285q-16 0 -27 11.5t-11 27.5v1010q0 16 -10.5 26t-26.5 10h-291q-16 0 -27.5 11.5 t-11.5 27.5z" />
<glyph unicode="U" horiz-adv-x="1525" d="M162 240v1155q0 39 39 39h282q39 0 39 -39v-1010q0 -16 11.5 -26.5t27.5 -10.5h406q16 0 26.5 10.5t10.5 26.5v1010q0 16 11 27.5t27 11.5h285q16 0 27.5 -11.5t11.5 -27.5v-1155q0 -49 -19.5 -93.5t-51 -77t-75.5 -51t-94 -18.5h-725q-49 0 -93 18.5t-76.5 51t-51 76.5 t-18.5 94z" />
<glyph unicode="V" horiz-adv-x="1527" d="M164 39v1356q0 39 39 39h282q39 0 39 -39v-1010q0 -16 11.5 -26.5t27.5 -10.5h406q16 0 26.5 10.5t10.5 26.5v1010q0 16 11 27.5t27 11.5h285q16 0 27.5 -11.5t11.5 -27.5v-1155q0 -49 -19.5 -93.5t-51 -77t-76 -51t-93.5 -18.5h-925q-39 0 -39 39z" />
<glyph unicode="W" horiz-adv-x="1835" d="M162 240v1155q0 39 39 39h282q39 0 39 -39v-1047h228v1047q0 16 11 27.5t27 11.5h259q16 0 27 -11.5t11 -27.5v-1047h230v1047q0 16 10 27.5t27 11.5h284q16 0 27.5 -11.5t11.5 -27.5v-1155q0 -49 -19.5 -93.5t-51 -77t-75.5 -51t-93 -18.5h-1035q-49 0 -93 18.5 t-76.5 51t-51 76.5t-18.5 94z" />
<glyph unicode="X" horiz-adv-x="1656" d="M142 9q-3 4 -3 8q0 7 6 16l441 674q8 14 8 32.5t-8 32.5l-414 629q-10 14 -4 23.5t22 9.5h308q16 0 32.5 -9.5t24.5 -23.5l274 -385l273 385q8 14 24.5 23.5t32.5 9.5h307q16 0 22.5 -9.5t-3.5 -23.5l-414 -629q-8 -14 -8 -32.5t8 -32.5l440 -674q6 -9 6 -16q0 -3 -2 -7 q-6 -10 -22 -10h-307q-16 0 -32.5 9t-25.5 24l-299 428l-301 -428q-8 -14 -24.5 -23.5t-32.5 -9.5h-307q-16 0 -22 9z" />
<glyph unicode="Y" horiz-adv-x="1374" d="M113 664v731q0 39 39 39h270q16 0 27.5 -11.5t11.5 -27.5v-611q0 -16 10 -27.5t27 -11.5h379q39 0 38 39v611q0 39 39 39h271q16 0 27.5 -11.5t11.5 -27.5v-731q0 -49 -19.5 -93.5t-51.5 -76t-76 -51t-93 -19.5h-156v-385q0 -16 -11 -27.5t-28 -11.5h-284 q-16 0 -26.5 11.5t-10.5 27.5v385h-156q-49 0 -93 19.5t-76.5 51t-51 75.5t-18.5 94z" />
<glyph unicode="Z" horiz-adv-x="1417" d="M160 39v256q0 16 7 35.5t17 31.5l680 750h-653q-16 0 -27.5 11.5t-11.5 27.5v244q0 16 11.5 27.5t27.5 11.5h1006q16 0 27 -11.5t11 -27.5v-258q0 -16 -8 -35t-18 -31l-666 -749h654q16 0 27 -11.5t11 -27.5v-244q0 -16 -11 -27.5t-27 -11.5h-1018q-39 0 -39 39z" />
<glyph unicode="[" horiz-adv-x="897" d="M164 -133v1700v39v36v123v39v35v35q0 16 11.5 27.5t27.5 11.5h37h446h37q16 0 27.5 -11.5t11.5 -27.5v-39v-178v-39q0 -16 -11.5 -26.5t-27.5 -10.5h-37h-139q-16 0 -27.5 -11t-11.5 -28v-1651q0 -16 11 -26t28 -10h139h37q16 0 27.5 -11.5t11.5 -27.5v-39v-178v-39 q0 -16 -11.5 -26.5t-27.5 -10.5h-37h-446h-37q-16 0 -27.5 10t-11.5 27v30v29v39v133v37v39z" />
<glyph unicode="\" horiz-adv-x="800" d="M53 1524q-4 16 5.5 28.5t25.5 16.5l264 55q16 4 28.5 -4t16.5 -25l352 -1685q4 -16 -5 -28.5t-25 -16.5l-264 -55q-16 -4 -28.5 5t-16.5 25z" />
<glyph unicode="]" horiz-adv-x="894" d="M137 -184q0 16 11.5 27.5t27.5 11.5h37h139q16 0 27.5 10t11.5 26v1651q0 16 -11 27.5t-28 11.5h-139h-37q-16 0 -27.5 10.5t-11.5 26.5v39v178v39q0 16 11.5 27.5t27.5 11.5h37h446h37q16 0 27.5 -11.5t11.5 -27.5v-35v-35v-39v-123v-36v-39v-1700v-39v-37v-133v-39v-29 v-30q0 -16 -11 -26.5t-28 -10.5h-37h-446h-37q-16 0 -27.5 10t-11.5 27v39v178v39z" />
<glyph unicode="^" horiz-adv-x="1032" d="M88 895l291 696q6 16 21.5 25.5t31.5 9.5h39h90h39q16 0 31.5 -9t21.5 -26l291 -696q14 -35 -24 -35h-129q-16 0 -32 9.5t-20 25.5l-223 551l-223 -551q-4 -16 -19.5 -25.5t-31.5 -9.5h-129q-39 0 -25 35z" />
<glyph unicode="_" horiz-adv-x="1609" d="M164 -39q0 39 39 39h1206q16 0 27.5 -11.5t11.5 -27.5v-270q0 -16 -11.5 -27.5t-27.5 -11.5h-1206q-16 0 -27.5 11t-11.5 28v270z" />
<glyph unicode="`" horiz-adv-x="593" d="M82 1654.5q-6 12.5 0 28.5l74 179q6 16 19 20t28 -4l319 -197q12 -8 17.5 -24.5t-0.5 -30.5l-17 -41q-4 -14 -19.5 -22.5t-31.5 -3.5l-367 79q-16 4 -22 16.5z" />
<glyph unicode="a" horiz-adv-x="1525" d="M162 39v1155q0 49 18.5 93t51 76t76.5 51.5t93 19.5h725q49 0 93.5 -19.5t76 -51.5t51 -76t19.5 -93v-1155q0 -16 -11.5 -27.5t-27.5 -11.5h-285q-16 0 -27 11.5t-11 27.5v367q0 16 -10.5 27t-26.5 11h-406q-16 0 -27.5 -11t-11.5 -27v-367q0 -39 -39 -39h-282 q-39 0 -39 39zM522 752h482v360h-482v-360z" />
<glyph unicode="b" horiz-adv-x="1521" d="M164 39v1356q0 39 39 39h925q49 0 93.5 -19.5t76 -51.5t51 -76t19.5 -93v-266q0 -16 -7 -36t-18 -32l-88 -112q-10 -12 -9 -31t11 -29l86 -102q10 -12 17.5 -31.5t7.5 -36.5v-278q0 -49 -19.5 -93.5t-51 -77t-75.5 -51t-94 -18.5h-925q-39 0 -39 39zM489 313h551v281 h-551v-281zM489 866h551v256h-551v-256z" />
<glyph unicode="c" horiz-adv-x="1415" d="M158 240v36v150v477v133v158q0 49 18.5 93t51 76t76.5 51.5t93 19.5h37h780q16 0 27.5 -11.5t11.5 -27.5v-271q0 -16 -11 -27.5t-28 -11.5h-657q-16 0 -27.5 -10t-11.5 -26v-664q0 -16 11.5 -26.5t27.5 -10.5h657q16 0 27.5 -11t11.5 -28v-270q0 -16 -11 -27.5t-28 -11.5 h-428h-352h-37q-49 0 -93 18.5t-76.5 51t-51 76.5t-18.5 94z" />
<glyph unicode="d" horiz-adv-x="1525" d="M164 39v1356q0 39 39 39h925q49 0 93.5 -19.5t76 -51.5t51 -76t19.5 -93v-954q0 -49 -19.5 -93.5t-51 -77t-75.5 -51t-94 -18.5h-925q-39 0 -39 39zM524 348h482v737h-482v-737z" />
<glyph unicode="e" horiz-adv-x="1421" d="M164 39v70v1187v99q0 16 11 27.5t28 11.5h149h803h66q16 0 27.5 -11.5t11.5 -27.5v-117v-61v-80q0 -16 -11.5 -26.5t-27.5 -10.5h-146h-426h-114q-10 0 -11 -10v-224q0 -8 11 -8h585q16 0 26.5 -11t10.5 -28v-205q0 -16 -10 -27.5t-27 -11.5h-585q-10 0 -11 -10v-100v-2 v-119q0 -10 11 -10h86h462h138q16 0 27.5 -11.5t11.5 -27.5v-82v-107v-67q0 -16 -11.5 -27.5t-27.5 -11.5h-117h-778h-123q-39 0 -39 39z" />
<glyph unicode="f" horiz-adv-x="1300" d="M164 39v1356q0 16 11 27.5t28 11.5h1018q16 0 27.5 -11.5t11.5 -27.5v-271q0 -16 -11.5 -27.5t-27.5 -11.5h-686q-10 0 -11 -8v-243q0 -10 11 -11h520q16 0 26.5 -11t10.5 -28v-235q0 -16 -10.5 -27.5t-26.5 -11.5h-520q-10 0 -11 -10v-461q0 -39 -39 -39h-282 q-39 0 -39 39z" />
<glyph unicode="g" horiz-adv-x="1509" d="M160 240v954q0 49 18.5 93t51 76t76.5 51.5t93 19.5h846q16 0 27.5 -11.5t11.5 -27.5v-271q0 -16 -11 -27.5t-28 -11.5h-686q-16 0 -27.5 -10t-11.5 -26v-664q0 -16 11.5 -26.5t27.5 -10.5h406q16 0 26 10.5t10 26.5v358q0 16 11.5 27.5t27.5 11.5h285q16 0 27.5 -11 t11.5 -28v-503q0 -49 -19.5 -93.5t-51 -77t-75.5 -51t-94 -18.5h-725q-49 0 -93 18.5t-76.5 51t-51 76.5t-18.5 94z" />
<glyph unicode="h" horiz-adv-x="1529" d="M164 39v1356q0 39 39 39h282q39 0 39 -39v-459q0 -39 39 -39h406q16 0 26.5 11.5t10.5 27.5v459q0 16 11 27.5t27 11.5h285q16 0 27.5 -11.5t11.5 -27.5v-1356q0 -16 -11 -27.5t-28 -11.5h-285q-16 0 -27 11.5t-11 27.5v473q0 16 -10.5 26.5t-26.5 10.5h-406 q-16 0 -27.5 -10.5t-11.5 -26.5v-473q0 -39 -39 -39h-282q-39 0 -39 39z" />
<glyph unicode="i" horiz-adv-x="681" d="M164 39v1356q0 39 39 39h282q39 0 39 -39v-1356q0 -39 -39 -39h-282q-39 0 -39 39z" />
<glyph unicode="j" horiz-adv-x="1300" d="M45 240v438q0 39 39 39h283q39 0 39 -39v-293q0 -16 11 -26.5t27 -10.5h297q16 0 27.5 10.5t11.5 26.5v1010q0 16 10.5 27.5t26.5 11.5h285q16 0 27.5 -11.5t11.5 -27.5v-1155q0 -49 -19.5 -93.5t-51.5 -77t-76 -51t-93 -18.5h-616q-49 0 -93.5 18.5t-77 51t-51 76.5 t-18.5 94z" />
<glyph unicode="k" horiz-adv-x="1558" d="M164 39v1356q0 39 39 39h282q39 0 39 -39v-609l529 619q10 12 28.5 20.5t34.5 8.5h340q16 0 20 -8q1 -2 0 -5q0 -7 -8 -16l-489 -576q-6 -6 -2 -14l479 -782q8 -14 2 -23.5t-22 -9.5h-340q-16 0 -32.5 9t-25.5 24l-309 559q-6 10 -10 2l-170 -186q-10 -10 -17.5 -30 t-7.5 -36v-303q0 -39 -39 -39h-282q-39 0 -39 39z" />
<glyph unicode="l" horiz-adv-x="1161" d="M164 39v1356q0 39 39 39h282q39 0 39 -39v-1010q0 -16 11.5 -26.5t27.5 -10.5h524q16 0 26.5 -11t10.5 -28v-270q0 -16 -10 -27.5t-27 -11.5h-884q-39 0 -39 39z" />
<glyph unicode="m" horiz-adv-x="1961" d="M164 39v1356q0 23 18 32q6 6 19 7h2h282h23q16 0 31.5 -10.5t21.5 -24.5l420 -961l420 961q6 14 21.5 24.5t31.5 10.5h23h284h2h6q12 -4 21.5 -14.5t9.5 -24.5v-1356q0 -16 -11 -27.5t-28 -11.5h-274q-16 0 -26.5 11.5t-10.5 27.5v719l-143 -348q-27 -66 -53.5 -129.5 t-47 -113.5t-34 -83t-15.5 -35l-4 -14q-6 -14 -21.5 -24.5t-31.5 -10.5h-238q-16 0 -31.5 10t-21.5 25l-6 14q-2 2 -15.5 35t-34 83t-46 113.5t-52.5 129.5q-63 154 -141 348v-719q0 -39 -39 -39h-272q-39 0 -39 39z" />
<glyph unicode="n" horiz-adv-x="1529" d="M164 39v1356q0 39 39 39h291q16 0 32.5 -9.5t24.5 -23.5l455 -838v832q0 16 11 27.5t27 11.5h285q16 0 27.5 -11.5t11.5 -27.5v-1356q0 -16 -11 -27.5t-28 -11.5h-270h-25q-16 0 -32.5 9t-24.5 24l-453 835v-829q0 -39 -39 -39h-282q-39 0 -39 39z" />
<glyph unicode="o" horiz-adv-x="1521" d="M160 240v954q0 49 18.5 93t51 76t76.5 51.5t93 19.5h725q49 0 93.5 -19.5t76 -51.5t51 -76t19.5 -93v-954q0 -49 -19.5 -93.5t-51 -77t-75.5 -51t-94 -18.5h-725q-49 0 -93 18.5t-76.5 51t-51 76.5t-18.5 94zM520 348h481v737h-481v-737z" />
<glyph unicode="p" horiz-adv-x="1333" d="M164 39v1356q0 39 39 39h817q49 0 93 -19.5t76 -51.5t51.5 -76t19.5 -93v-543q0 -49 -19.5 -93t-51.5 -75.5t-76 -51t-93 -19.5h-457q-16 0 -27.5 -10.5t-11.5 -26.5v-336q0 -39 -39 -39h-282q-39 0 -39 39zM512 745h399v363h-399v-363z" />
<glyph unicode="q" horiz-adv-x="1476" d="M127 240v954q0 49 18.5 93t51 76t76.5 51.5t94 19.5h725q49 0 93 -19.5t75.5 -51.5t51 -76t19.5 -93v-954q0 -49 -18.5 -92.5t-50 -76t-73.5 -51t-91 -20.5h-39q-8 0 -4 -8l110 -193q8 -14 3 -23t-21 -9h-340q-16 0 -32.5 9t-24.5 23l-111 193q-8 8 -14 8h-258 q-49 0 -93.5 18.5t-77 51t-51 76.5t-18.5 94zM487 334h482v751h-482v-751z" />
<glyph unicode="r" horiz-adv-x="1560" d="M164 39v1356q0 39 39 39h925q49 0 93.5 -19.5t76 -51.5t51 -76t19.5 -93v-539q0 -78 -46 -140t-118 -85l-6 -2q-14 -4 -6 -12l2 -4l219 -379q5 -8 5 -15q0 -4 -3 -8q-6 -10 -22 -10h-326q-16 0 -32.5 9t-24.5 24l-217 389q-4 8 -15 8h-243q-10 0 -11 -10v-381 q0 -39 -39 -39h-282q-39 0 -39 39zM512 752h494v348h-494v-348z" />
<glyph unicode="s" horiz-adv-x="1400" d="M158 39v248q0 16 11 27.5t28 11.5h696q16 0 27.5 10t11.5 26v170q0 16 -11.5 27.5t-27.5 11.5h-496q-49 0 -93 18.5t-76.5 51.5t-51 76t-18.5 92v385q0 49 18.5 93t51 76t76.5 51.5t93 19.5h772q39 0 39 -39v-252q0 -16 -11 -26.5t-28 -10.5h-653q-16 0 -26.5 -11.5 t-10.5 -27.5v-166q0 -16 10.5 -27.5t26.5 -11.5h498q49 0 93 -18.5t75.5 -51t51 -75.5t19.5 -92v-385q0 -49 -19.5 -93.5t-51 -77t-75.5 -51t-93 -18.5h-817q-39 0 -39 39z" />
<glyph unicode="t" horiz-adv-x="1259" d="M82 1124v271q0 39 39 39h291h75h285h76h291q16 0 27.5 -11.5t11.5 -27.5v-271q0 -16 -11.5 -27.5t-27.5 -11.5h-291q-16 0 -27.5 -10t-11.5 -26v-1010q0 -16 -10.5 -27.5t-26.5 -11.5h-285q-16 0 -27 11.5t-11 27.5v1010q0 16 -10.5 26t-26.5 10h-291q-16 0 -27.5 11.5 t-11.5 27.5z" />
<glyph unicode="u" horiz-adv-x="1525" d="M162 240v1155q0 39 39 39h282q39 0 39 -39v-1010q0 -16 11.5 -26.5t27.5 -10.5h406q16 0 26.5 10.5t10.5 26.5v1010q0 16 11 27.5t27 11.5h285q16 0 27.5 -11.5t11.5 -27.5v-1155q0 -49 -19.5 -93.5t-51 -77t-75.5 -51t-94 -18.5h-725q-49 0 -93 18.5t-76.5 51t-51 76.5 t-18.5 94z" />
<glyph unicode="v" horiz-adv-x="1509" d="M90 1397q-1 6 -1 11q0 10 4 16q7 10 24 10h307q16 0 30.5 -10.5t18.5 -26.5l281 -1010l282 1010q4 16 17.5 26.5t29.5 10.5h310q16 0 23 -10q4 -7 4 -16q0 -5 -1 -11l-426 -1360q-4 -16 -18 -26.5t-31 -10.5h-381q-16 0 -30.5 10t-18.5 27z" />
<glyph unicode="w" horiz-adv-x="2125" d="M80 1397q-1 6 -1 11q0 10 4 16q7 10 23 10h295q16 0 29.5 -10.5t18.5 -26.5l200 -860l244 860q6 29 39 37h8h254h8q33 -8 39 -37l244 -860l201 860q4 16 17 26.5t30 10.5h295q16 0 23 -10q4 -7 4 -16q0 -5 -1 -11l-399 -1360q-4 -16 -18.5 -26.5t-30.5 -10.5h-19h-209 h-20q-16 0 -28.5 10t-16.5 27l-246 967l-246 -967q-4 -16 -17 -26.5t-30 -10.5h-18h-209h-21q-16 0 -29.5 10t-17.5 27z" />
<glyph unicode="x" horiz-adv-x="1562" d="M94 9q-3 4 -2 8q0 7 6 16l441 674q8 14 8 32.5t-8 32.5l-414 629q-10 14 -4 23.5t22 9.5h308q16 0 32.5 -9.5t24.5 -23.5l274 -385l273 385q8 14 24.5 23.5t32.5 9.5h307q16 0 22.5 -9.5t-3.5 -23.5l-414 -629q-8 -14 -8 -32.5t8 -32.5l440 -674q6 -9 6 -16q0 -3 -2 -7 q-6 -10 -22 -10h-307q-16 0 -32.5 9t-25.5 24l-299 428l-301 -428q-8 -14 -24.5 -23.5t-32.5 -9.5h-307q-17 0 -23 9z" />
<glyph unicode="y" horiz-adv-x="1468" d="M74 1424q6 10 22 10h307q16 0 32 -9.5t24 -23.5l274 -539l275 539q8 14 24.5 23.5t32.5 9.5h307q16 0 22 -10q3 -4 3 -9q0 -6 -4 -14l-461 -836q-8 -14 -13.5 -34.5t-5.5 -36.5v-455q0 -16 -10 -27.5t-26 -11.5h-285q-16 0 -27.5 11.5t-11.5 27.5v455q0 16 -5 36.5 t-13 34.5l-459 836q-5 8 -5 15q0 4 3 8z" />
<glyph unicode="z" horiz-adv-x="1417" d="M160 39v256q0 16 7 35.5t17 31.5l680 750h-653q-16 0 -27.5 11.5t-11.5 27.5v244q0 16 11.5 27.5t27.5 11.5h1006q16 0 27 -11.5t11 -27.5v-258q0 -16 -8 -35t-18 -31l-666 -749h654q16 0 27 -11.5t11 -27.5v-244q0 -16 -11 -27.5t-27 -11.5h-1018q-39 0 -39 39z" />
<glyph unicode="{" horiz-adv-x="954" d="M74 741q-2 10 0 16.5t6 12.5t6 12q10 12 20.5 25.5t16.5 19.5q4 6 14 20.5t21 26.5l8 9q10 12 20.5 29.5t16.5 29.5t10 44t4 48v402v14v23v24v14v93v36v17v16q0 49 19.5 93t51 76t76 51.5t93.5 19.5h30h31h39h14h37h39h92h37q16 0 27.5 -11.5t11.5 -27.5v-39v-178v-39 q0 -16 -11 -26.5t-28 -10.5h-37h-139q-16 0 -26.5 -11t-10.5 -28v-1651q0 -16 10.5 -26t26.5 -10h139h37q16 0 27.5 -11.5t11.5 -27.5v-39v-178v-39q0 -16 -11 -26.5t-28 -10.5h-37h-92h-39h-37h-14h-39h-31h-30q-49 0 -93.5 18.5t-76 51t-51 75.5t-19.5 92v31v29v39v90v39 v37v28v15v24v23v14v328q0 16 -1 36.5t-5 32.5t-18.5 37t-20.5 33l-12 14l-4 4q-4 2 -13 15q-4 6 -8 10l-4 4q-2 4 -8 10l-10 13q-10 10 -17 22q-2 2 -3 4t-3 4q-4 4 -8 13q-8 16 -8 32z" />
<glyph unicode="|" horiz-adv-x="665" d="M164 -207v1839q0 16 11 26.5t28 10.5h268q16 0 26.5 -10t10.5 -27v-1839q0 -16 -10.5 -26.5t-26.5 -10.5h-268q-16 0 -27.5 10.5t-11.5 26.5z" />
<glyph unicode="}" horiz-adv-x="960" d="M143 -184q0 16 11.5 27.5t27.5 11.5h37h139q16 0 27.5 10t11.5 26v1651q0 16 -11 27.5t-28 11.5h-139h-37q-16 0 -27.5 10.5t-11.5 26.5v39v178v39q0 16 11.5 27.5t27.5 11.5h37h92h39h37h14h39h31h31q49 0 93 -19.5t75.5 -51.5t51 -76t19.5 -93v-16v-17v-36v-93v-14v-24 v-23v-14v-402q0 -16 4.5 -48t10.5 -44t17 -29.5t22 -29.5l6 -9q10 -12 20 -26l15 -21q6 -6 17 -19t21 -26q4 -6 7 -12q2 -6 3 -12.5t1 -16.5q-4 -23 -8 -32q-4 -8 -9 -13q-2 -2 -3 -4t-3 -4q-6 -12 -16 -22l-10 -13q-6 -6 -9 -10l-4 -4q-4 -4 -8 -10q-4 -4 -7 -8.5t-5 -6.5 l-4 -4l-13 -14q-6 -8 -20 -32.5t-18 -37.5q-4 -12 -5.5 -32.5t-1.5 -36.5v-328v-14v-23v-24v-15v-28v-37v-39v-90v-39v-29v-31q0 -49 -19.5 -92t-51 -75.5t-75.5 -51t-93 -18.5h-31h-31h-39h-14h-37h-39h-92h-37q-16 0 -27.5 10t-11.5 27v39v178v39z" />
<glyph unicode="~" horiz-adv-x="739" d="M72 1608l6 47q0 10 7 19t17 14l15 8l274 121q4 2 12 2h7q8 0 20 -9q6 -10 6 -22l-10 -70l209 56q2 0 3 1t5 1q13 -1 19 -11q8 -8 8 -20l-6 -49q-4 -23 -25 -33l-16 -6l-275 -121q-8 -4 -12 -4t-6 2q-12 0 -19 8q-8 8 -6 21l8 69l-207 -53q-2 -2 -8 -2q-12 0 -20 8 q-10 10 -6 23z" />
<glyph unicode="&#xa1;" horiz-adv-x="675" d="M158 1110v285q0 39 39 39h282q39 0 39 -39v-285q0 -16 -11 -26.5t-28 -10.5h-282q-16 0 -27.5 10.5t-11.5 26.5zM160 39l37 893q0 16 11 27.5t28 11.5h204q16 0 27.5 -11.5t11.5 -27.5l37 -893q2 -16 -9 -27.5t-28 -11.5h-282q-16 0 -27.5 11.5t-9.5 27.5z" />
<glyph unicode="&#xa3;" horiz-adv-x="1161" d="M164 39v1356q0 39 39 39h282q39 0 39 -39v-1010q0 -16 11.5 -26.5t27.5 -10.5h524q16 0 26.5 -11t10.5 -28v-270q0 -16 -10 -27.5t-27 -11.5h-884q-39 0 -39 39z" />
<glyph unicode="&#xa4;" />
<glyph unicode="&#xa5;" horiz-adv-x="1374" d="M113 664v731q0 39 39 39h270q16 0 27.5 -11.5t11.5 -27.5v-611q0 -16 10 -27.5t27 -11.5h379q39 0 38 39v611q0 39 39 39h271q16 0 27.5 -11.5t11.5 -27.5v-731q0 -49 -19.5 -93.5t-51.5 -76t-76 -51t-93 -19.5h-156v-385q0 -16 -11 -27.5t-28 -11.5h-284 q-16 0 -26.5 11.5t-10.5 27.5v385h-156q-49 0 -93 19.5t-76.5 51t-51 75.5t-18.5 94z" />
<glyph unicode="&#xa6;" />
<glyph unicode="&#xa7;" />
<glyph unicode="&#xa8;" horiz-adv-x="819" d="M143 1657q0 43 30 73.5t73 30.5t72.5 -30.5t29.5 -73.5q0 -41 -29.5 -72t-72.5 -31t-73 31t-30 72zM471 1657q0 43 29.5 73.5t72.5 30.5t73 -30.5t30 -73.5q0 -41 -30 -72t-73 -31t-72.5 31t-29.5 72z" />
<glyph unicode="&#xa9;" horiz-adv-x="880" d="M86.5 793.5q-6.5 9.5 1.5 23.5l18 35l144 256l160 293q8 12 24.5 22.5t32.5 10.5h154h116h39q16 0 21.5 -9.5t-2.5 -23.5l-125 -223l-109 -189q-8 -14 -2 -23.5t23 -9.5h194h39q16 0 21.5 -9t-2.5 -23l-261 -447l-243 -411l-19 -33q-8 -14 -24.5 -23.5t-32.5 -9.5h-39 h-63h-39q-16 0 -22.5 10t-0.5 25l295 715q6 14 -1 24t-24 10h-215h-36q-16 0 -22.5 9.5z" />
<glyph unicode="&#xab;" />
<glyph unicode="&#xad;" horiz-adv-x="843" d="M164 520v271q0 39 39 38h442q16 0 27.5 -11t11.5 -27v-271q0 -16 -11 -27.5t-28 -11.5h-442q-16 0 -27.5 11.5t-11.5 27.5z" />
<glyph unicode="&#xae;" />
<glyph unicode="&#xb0;" />
<glyph unicode="&#xb1;" />
<glyph unicode="&#xb2;" />
<glyph unicode="&#xb3;" />
<glyph unicode="&#xb4;" horiz-adv-x="595" d="M58 1653.5q5 15.5 20 25.5l319 197q14 8 27.5 4t19.5 -20l74 -181q4 -14 -2 -26.5t-22 -16.5l-365 -80q-16 -4 -31.5 3.5t-21.5 23.5l-17 41q-6 14 -1 29.5z" />
<glyph unicode="&#xb8;" horiz-adv-x="428" d="M90 -141q-8 14 2 26l103 187q4 10 14 15t20 5l101 2q14 0 22 -14q6 -12 0 -27l-65 -112h55q14 0 23 -15q6 -10 0 -26l-150 -248l-6 -10q-10 -20 -35 -21h-45q-16 0 -23 12q-10 10 -2 25l76 188h-65q-16 0 -25 13z" />
<glyph unicode="&#xbc;" horiz-adv-x="3411" />
<glyph unicode="&#xbd;" horiz-adv-x="3411" />
<glyph unicode="&#xbe;" horiz-adv-x="3411" />
<glyph unicode="&#xbf;" horiz-adv-x="1101" d="M92 240q0 -49 18.5 -93.5t51.5 -77t77 -51t93 -18.5h598q16 0 26.5 11.5t10.5 27.5v270q0 16 -10.5 27.5t-26.5 11.5h-438q-16 0 -27.5 10.5t-11.5 26.5v227q0 16 11 27.5t28 11.5h344q16 0 27 11.5t11 27.5v244q0 16 -11 26.5t-27 10.5h-705q-16 0 -27.5 -10.5 t-11.5 -26.5v-694zM514 1110v285q0 16 10.5 27.5t26.5 11.5h285q16 0 27 -11.5t11 -27.5v-285q0 -16 -11 -26.5t-27 -10.5h-285q-16 0 -26.5 10.5t-10.5 26.5z" />
<glyph unicode="&#xc0;" horiz-adv-x="1435" d="M119 39v1155q0 49 18.5 93t51 76t76.5 51.5t93 19.5h725q49 0 93.5 -19.5t76 -51.5t51 -76t19.5 -93v-1155q0 -16 -11.5 -27.5t-27.5 -11.5h-285q-16 0 -27 11.5t-11 27.5v367q0 16 -10.5 26t-26.5 10h-406q-16 0 -27.5 -10t-11.5 -26v-367q0 -39 -39 -39h-282 q-39 0 -39 39zM479 752h482v360h-482v-360zM491.5 1654.5q-6.5 12.5 0.5 28.5l73 179q4 16 18.5 20t26.5 -4l320 -197q14 -8 19 -24.5t-1 -30.5l-16 -41q-6 -14 -20.5 -22.5t-30.5 -3.5l-367 79q-16 4 -22.5 16.5z" />
<glyph unicode="&#xc1;" horiz-adv-x="1437" d="M115 39q0 -39 39 -39h282q39 0 39 39v367q0 16 11.5 26t27.5 10h406q16 0 26 -10t10 -26v-367q0 -16 11.5 -27.5t27.5 -11.5h285q16 0 27.5 11.5t11.5 27.5v1155q0 49 -19.5 93t-51 76t-76 51.5t-93.5 19.5h-725q-49 0 -93 -19.5t-76.5 -51.5t-51 -76t-18.5 -93v-1155z M475 752v360h481v-360h-481zM486.5 1653.5q5.5 15.5 19.5 25.5l319 197q14 8 27.5 4t19.5 -20l72 -181q6 -14 0 -26.5t-22 -16.5l-367 -80q-16 -4 -30.5 3.5t-20.5 23.5l-17 41q-6 14 -0.5 29.5z" />
<glyph unicode="&#xc2;" horiz-adv-x="1460" d="M129 39v1155q0 49 18.5 93t51 76t76.5 51.5t94 19.5h725q49 0 93 -19.5t75.5 -51.5t51 -76t19.5 -93v-1155q0 -16 -11 -27.5t-28 -11.5h-284q-16 0 -27.5 11.5t-11.5 27.5v367q0 16 -10.5 26t-26.5 10h-406q-16 0 -27.5 -10t-11.5 -26v-367q0 -39 -38 -39h-283 q-39 0 -39 39zM359.5 1656.5q5.5 16.5 19.5 24.5l319 197q14 8 33 8t33 -8l319 -197q12 -8 17.5 -24.5t-0.5 -30.5l-17 -41q-4 -14 -18 -20t-31 -2l-268 92q-14 6 -34.5 6t-37.5 -6l-266 -92q-16 -4 -30.5 2t-20.5 20l-17 41q-6 14 -0.5 30.5zM489 752h482v360h-482v-360z " />
<glyph unicode="&#xc3;" horiz-adv-x="1452" d="M125 39v1155q0 49 18.5 93t51 76t76.5 51.5t94 19.5h725q49 0 93 -19.5t75.5 -51.5t51 -76t19.5 -93v-1155q0 -16 -11 -27.5t-28 -11.5h-284q-16 0 -27.5 11.5t-11.5 27.5v367q0 16 -10.5 26t-26.5 10h-406q-16 0 -27.5 -10t-11.5 -26v-367q0 -39 -39 -39h-282 q-39 0 -39 39zM428 1608l6 47q0 10 7.5 19t17.5 14l14 8l275 121q4 2 12 2h6q8 0 20 -9q6 -10 7 -22l-11 -70l209 56q2 0 3 1t5 1q13 -1 19 -11q8 -8 8 -20l-6 -49q-4 -23 -25 -33l-16 -6l-274 -121q-8 -4 -13 -4q-4 0 -6 2q-12 0 -18 8q-8 8 -6 21l8 69l-207 -53 q-2 -2 -8 -2q-12 0 -21 8q-10 10 -6 23zM485 752h482v360h-482v-360z" />
<glyph unicode="&#xc4;" horiz-adv-x="1454" d="M125 39v1155q0 49 18.5 93t51 76t76.5 51.5t94 19.5h725q49 0 93 -19.5t75.5 -51.5t51 -76t19.5 -93v-1155q0 -16 -11 -27.5t-28 -11.5h-284q-16 0 -27.5 11.5t-11.5 27.5v367q0 16 -10.5 26t-26.5 10h-406q-16 0 -27.5 -10t-11.5 -26v-367q0 -39 -39 -39h-282 q-39 0 -39 39zM459 1657q0 43 30.5 73.5t73.5 30.5q41 0 72 -30.5t31 -73.5q0 -41 -31 -72t-72 -31q-43 0 -73.5 31t-30.5 72zM485 752h482v360h-482v-360zM786 1657q0 43 31 73.5t74 30.5q41 0 71.5 -30.5t30.5 -73.5q0 -41 -30.5 -72t-71.5 -31q-43 0 -74 31t-31 72z" />
<glyph unicode="&#xc5;" horiz-adv-x="1439" d="M119 39v1155q0 49 18.5 93t51 76t76.5 51.5t93 19.5h725q49 0 93.5 -19.5t76 -51.5t51 -76t19.5 -93v-1155q0 -16 -11.5 -27.5t-27.5 -11.5h-285q-16 0 -27 11.5t-11 27.5v367q0 16 -10.5 26t-26.5 10h-406q-16 0 -27.5 -10t-11.5 -26v-367q0 -39 -39 -39h-282 q-39 0 -39 39zM479 752h482v360h-482v-360zM563 1683q0 66 46 112t112 46t111 -46t45 -112t-45.5 -110.5t-110.5 -44.5q-66 0 -112 45t-46 110zM657 1683q0 -27 18.5 -45t45.5 -18t45 18.5t18 44.5q0 29 -18 46.5t-45 17.5t-45.5 -17.5t-18.5 -46.5z" />
<glyph unicode="&#xc6;" horiz-adv-x="2260" d="M162 39v1155q0 49 18.5 93t51 76t76.5 51.5t93 19.5h1596h63q16 0 27.5 -11.5t11.5 -27.5v-117v-61v-80q0 -16 -11 -26.5t-28 -10.5h-145h-426h-115q-8 0 -8 -10v-224q0 -8 8 -8h586q16 0 27.5 -11t11.5 -28v-205q0 -16 -11.5 -27.5t-27.5 -11.5h-586q-8 0 -8 -10v-100 v-2v-119q0 -10 8 -10h86h465h135q39 0 39 -39v-82v-107v-67q0 -39 -39 -39h-116h-902q-10 0 -14 2q-25 10 -24 37v70v297q0 16 -10.5 26t-26.5 10h-406q-16 0 -27.5 -10t-11.5 -26v-367q0 -39 -39 -39h-282q-39 0 -39 39zM522 752h482v360h-482v-360z" />
<glyph unicode="&#xc7;" horiz-adv-x="1296" d="M113 240v36v150v477v133v158q0 49 18.5 93t51 76t76.5 51.5t93 19.5h37h780q16 0 27.5 -11.5t11.5 -27.5v-271q0 -16 -11 -27.5t-28 -11.5h-657q-16 0 -27.5 -10t-11.5 -26v-664q0 -16 11.5 -27.5t27.5 -11.5h657q16 0 27.5 -10t11.5 -27v-270q0 -16 -11 -27.5t-28 -11.5 h-372l-35 -59h55q14 0 23 -15q6 -10 0 -26l-150 -248l-6 -10q-10 -20 -35 -21h-45q-16 0 -22 12q-10 10 -2 25l75 188h-65q-16 0 -25 13q-8 14 2 26l62 115h-240h-37q-49 0 -93 18.5t-76.5 51t-51 76.5t-18.5 94z" />
<glyph unicode="&#xc8;" horiz-adv-x="1310" d="M123 39v70v1187v99q0 16 11 27.5t28 11.5h149h803h66q16 0 27.5 -11.5t11.5 -27.5v-117v-61v-80q0 -16 -11.5 -26.5t-27.5 -10.5h-146h-426h-114q-10 0 -11 -10v-224q0 -8 11 -8h585q16 0 26.5 -11t10.5 -28v-205q0 -16 -10 -27.5t-27 -11.5h-585q-10 0 -11 -10v-100v-2 v-119q0 -10 11 -10h86h462h138q16 0 27.5 -11.5t11.5 -27.5v-82v-107v-67q0 -16 -11.5 -27.5t-27.5 -11.5h-117h-778h-123q-39 0 -39 39zM442 1683l72 181q6 14 19.5 18t27.5 -4l320 -197q14 -8 19 -24.5t-1 -30.5l-16 -41q-6 -14 -20.5 -22.5t-31.5 -3.5l-366 79 q-16 4 -22.5 16.5t-0.5 28.5z" />
<glyph unicode="&#xc9;" horiz-adv-x="1314" d="M119 39q0 -39 39 -39h123h778h117q16 0 27 11.5t11 27.5v67v107v82q0 16 -11 27.5t-27 11.5h-138h-463h-86q-10 0 -10 10v119v2v100q0 10 10 10h586q16 0 26.5 11.5t10.5 27.5v205q0 16 -10 27.5t-27 11.5h-586q-10 0 -10 8v224q0 10 10 10h115h426h146q16 0 27 10t11 27 v80v61v117q0 16 -11 27.5t-27 11.5h-66h-803h-149q-16 0 -27.5 -11.5t-11.5 -27.5v-99v-1187v-70zM437 1653.5q5 15.5 20 25.5l319 197q12 8 26.5 4t18.5 -20l74 -181q6 -14 0 -26.5t-23 -16.5l-366 -80q-16 -4 -30.5 3.5t-20.5 23.5l-17 41q-6 14 -1 29.5z" />
<glyph unicode="&#xca;" horiz-adv-x="1341" d="M133 39v70v1187v99q0 16 11.5 27.5t27.5 11.5h150h802h66q16 0 27.5 -11.5t11.5 -27.5v-117v-61v-80q0 -16 -11.5 -26.5t-27.5 -10.5h-146h-426h-114q-10 0 -10 -10v-224q0 -8 10 -8h586q16 0 26 -11t10 -28v-205q0 -16 -10 -27.5t-26 -11.5h-586q-10 0 -10 -10v-100v-2 v-119q0 -10 10 -10h86h463h137q16 0 27.5 -11.5t11.5 -27.5v-82v-107v-67q0 -16 -11.5 -27.5t-27.5 -11.5h-117h-778h-123q-39 0 -39 39zM310 1656.5q5 16.5 18 24.5l319 197q14 8 32.5 8t33.5 -8l319 -197q14 -8 19.5 -24.5t-0.5 -30.5l-17 -41q-6 -14 -20.5 -20t-30.5 -2 l-266 92q-16 6 -37 6t-35 -6l-268 -92q-16 -4 -30.5 2t-20.5 20l-15 41q-6 14 -1 30.5z" />
<glyph unicode="&#xcb;" horiz-adv-x="1323" d="M131 39v70v1187v99q0 16 11.5 27.5t27.5 11.5h149h803h66q16 0 27.5 -11.5t11.5 -27.5v-117v-61v-80q0 -16 -11.5 -26.5t-27.5 -10.5h-146h-426h-114q-10 0 -10 -10v-224q0 -8 10 -8h585q16 0 26.5 -11t10.5 -28v-205q0 -16 -10 -27.5t-27 -11.5h-585q-10 0 -10 -10v-100 v-2v-119q0 -10 10 -10h86h463h137q16 0 27.5 -11.5t11.5 -27.5v-82v-107v-67q0 -16 -11.5 -27.5t-27.5 -11.5h-117h-778h-123q-39 0 -39 39zM412 1657q0 43 29.5 73.5t72.5 30.5t72.5 -30.5t29.5 -73.5q0 -41 -29.5 -72t-72.5 -31t-72.5 31t-29.5 72zM739 1657q0 43 30 73.5 t73 30.5t72.5 -30.5t29.5 -73.5q0 -41 -29.5 -72t-72.5 -31t-73 31t-30 72z" />
<glyph unicode="&#xcc;" horiz-adv-x="665" d="M108.5 1654.5q-6.5 12.5 0.5 28.5l73 179q6 16 19.5 20t27.5 -4l320 -197q12 -8 17 -24.5t-1 -30.5l-14 -41q-6 -14 -21.5 -22.5t-31.5 -3.5l-367 79q-16 4 -22.5 16.5zM158 39v1356q0 16 11 27.5t28 11.5h282q16 0 27.5 -11.5t11.5 -27.5v-1356q0 -39 -39 -39h-282 q-39 0 -39 39z" />
<glyph unicode="&#xcd;" horiz-adv-x="669" d="M100 1624q-4 14 1 29.5t18 25.5l319 197q14 8 27.5 4t19.5 -20l74 -181q4 -14 -2 -26.5t-22 -16.5l-365 -80q-16 -4 -31.5 3.5t-21.5 23.5zM150 39v1356q0 16 11 27.5t27 11.5h283q16 0 27.5 -11.5t11.5 -27.5v-1356q0 -39 -39 -39h-283q-39 0 -38 39z" />
<glyph unicode="&#xce;" horiz-adv-x="884" d="M71 1656.5q5 16.5 19 24.5l320 197q14 8 32.5 8t32.5 -8l320 -197q12 -8 17 -24.5t1 -30.5l-16 -41q-6 -14 -20.5 -20t-31.5 -2l-266 92q-16 6 -36.5 6t-36.5 -6l-267 -92q-16 -4 -30.5 2t-20.5 20l-16 41q-6 14 -1 30.5zM262 39v1356q0 16 11.5 27.5t27.5 11.5h283 q16 0 27.5 -11.5t11.5 -27.5v-1356q0 -39 -39 -39h-283q-39 0 -39 39z" />
<glyph unicode="&#xcf;" horiz-adv-x="700" d="M84 1657q0 43 29.5 73.5t72.5 30.5t73 -30.5t30 -73.5q0 -41 -30 -72t-73 -31t-72.5 31t-29.5 72zM170 39v1356q0 16 11.5 27.5t27.5 11.5h283q16 0 27 -11.5t11 -27.5v-1356q0 -39 -38 -39h-283q-39 0 -39 39zM412 1657q0 43 29.5 73.5t72.5 30.5t72.5 -30.5t29.5 -73.5 q0 -41 -29.5 -72t-72.5 -31t-72.5 31t-29.5 72z" />
<glyph unicode="&#xd0;" horiz-adv-x="1392" />
<glyph unicode="&#xd1;" horiz-adv-x="1458" d="M127 39v1356q0 16 11.5 27.5t27.5 11.5h291q16 0 32.5 -9.5t24.5 -23.5l455 -838v832q0 16 11 27.5t28 11.5h284q16 0 27.5 -11.5t11.5 -27.5v-1356q0 -16 -11 -27.5t-28 -11.5h-270h-25q-16 0 -32.5 9t-24.5 24l-453 835v-829q0 -39 -38 -39h-283q-39 0 -39 39z M430 1608l6 47q0 10 7.5 19t17.5 14l14 8l275 121q4 2 12 2h6q8 0 20 -9q6 -10 7 -22l-11 -70l209 56q2 0 3 1t5 1q13 -1 19 -11q8 -8 8 -20l-6 -49q-4 -23 -25 -33l-16 -6l-274 -121q-8 -4 -13 -4q-4 0 -6 2q-12 0 -18 8q-8 8 -6 21l8 69l-207 -53q-2 -2 -8 -2q-12 0 -21 8 q-10 10 -6 23z" />
<glyph unicode="&#xd2;" horiz-adv-x="1433" d="M117 240v954q0 49 18.5 93t51 76t76.5 51.5t93 19.5h725q49 0 93.5 -19.5t76 -51.5t51 -76t19.5 -93v-954q0 -49 -19.5 -93.5t-51 -77t-76 -51t-93.5 -18.5h-725q-49 0 -93 18.5t-76.5 51t-51 76.5t-18.5 94zM477 346h481v739h-481v-739zM489 1683l74 179q4 16 18.5 20 t26.5 -4l320 -197q14 -8 19 -24.5t-1 -30.5l-16 -41q-6 -14 -20.5 -22.5t-30.5 -3.5l-367 79q-16 4 -22.5 16.5t-0.5 28.5z" />
<glyph unicode="&#xd3;" horiz-adv-x="1435" d="M115 240q0 -49 18.5 -93.5t51 -77t76.5 -51t93 -18.5h725q49 0 93.5 18.5t76 51t51 76.5t19.5 94v954q0 49 -19.5 93t-51 76t-76 51.5t-93.5 19.5h-725q-49 0 -93 -19.5t-76.5 -51.5t-51 -76t-18.5 -93v-954zM475 346v739h481v-739h-481zM486.5 1653.5 q5.5 15.5 19.5 25.5l319 197q14 8 27.5 4t19.5 -20l72 -181q6 -14 0 -26.5t-22 -16.5l-367 -80q-16 -4 -30.5 3.5t-20.5 23.5l-17 41q-6 14 -0.5 29.5z" />
<glyph unicode="&#xd4;" horiz-adv-x="1456" d="M127 240v954q0 49 18.5 93t51 76t76.5 51.5t94 19.5h725q49 0 93 -19.5t75.5 -51.5t51 -76t19.5 -93v-954q0 -49 -19.5 -93.5t-51 -77t-75.5 -51t-93 -18.5h-725q-49 0 -93.5 18.5t-77 51t-51 76.5t-18.5 94zM357 1656.5q5 16.5 20 24.5l319 197q14 8 33 8t33 -8 l319 -197q12 -8 17.5 -24.5t-0.5 -30.5l-17 -41q-4 -14 -18 -20t-31 -2l-268 92q-14 6 -34.5 6t-37.5 -6l-266 -92q-16 -4 -30.5 2t-20.5 20l-17 41q-6 14 -1 30.5zM487 346h482v739h-482v-739z" />
<glyph unicode="&#xd5;" horiz-adv-x="1443" d="M121 240v954q0 49 18.5 93t51 76t76.5 51.5t93 19.5h725q49 0 93.5 -19.5t76 -51.5t51 -76t19.5 -93v-954q0 -49 -19.5 -93.5t-51 -77t-75.5 -51t-94 -18.5h-725q-49 0 -93 18.5t-76.5 51t-51 76.5t-18.5 94zM424 1647l6 47q4 23 25 32l14 7l274 122q4 2 13 3h6 q8 0 20 -9q6 -10 6 -22l-10 -70l209 55h8q13 0 19 -8q8 -8 8 -22l-6 -47q-4 -23 -25 -33l-16 -6l-275 -123q-4 -2 -12 -2h-6q-12 0 -18 10q-10 6 -7 21l9 69l-207 -55h-8q-14 0 -21 8q-10 10 -6 23zM481 346h482v739h-482v-739z" />
<glyph unicode="&#xd6;" horiz-adv-x="1449" d="M123 240v954q0 49 18.5 93t51 76t76.5 51.5t93 19.5h725q49 0 93.5 -19.5t76 -51.5t51 -76t19.5 -93v-954q0 -49 -19.5 -93.5t-51 -77t-75.5 -51t-94 -18.5h-725q-49 0 -93 18.5t-76.5 51t-51 76.5t-18.5 94zM457 1657q0 43 30.5 73.5t73.5 30.5q41 0 72 -30.5t31 -73.5 q0 -41 -31 -72t-72 -31q-43 0 -73.5 31t-30.5 72zM483 346h482v739h-482v-739zM784 1657q0 43 31 73.5t74 30.5q41 0 71.5 -30.5t30.5 -73.5q0 -41 -30.5 -72t-71.5 -31q-43 0 -74 31t-31 72z" />
<glyph unicode="&#xd7;" />
<glyph unicode="&#xd8;" horiz-adv-x="1411" d="M158 240v954q0 49 18.5 93t51 76t76.5 51.5t93 19.5h185h96h67h64h205q49 0 93 -19.5t75.5 -51.5t51 -76t19.5 -93v-954q0 -49 -19.5 -93.5t-51 -77t-75.5 -51t-93 -18.5h-205h-64h-67h-96h-185q-49 0 -93 18.5t-76.5 51t-51 76.5t-18.5 94zM492 492l303 608h-303v-608z M616 334h304v608z" />
<glyph unicode="&#xd9;" horiz-adv-x="1439" d="M121 240v1155q0 16 11 27.5t28 11.5h282q16 0 27.5 -11.5t11.5 -27.5v-1010q0 -16 11.5 -27.5t27.5 -11.5h406q16 0 26.5 11.5t10.5 27.5v1010q0 16 11 27.5t27 11.5h285q16 0 27.5 -11.5t11.5 -27.5v-1155q0 -49 -19.5 -93.5t-51 -77t-75.5 -51t-94 -18.5h-725 q-49 0 -93 18.5t-76.5 51t-51 76.5t-18.5 94zM493.5 1654.5q-6.5 12.5 0.5 28.5l73 179q4 16 18.5 20t26.5 -4l320 -197q14 -8 19 -24.5t-1 -30.5l-16 -41q-6 -14 -20.5 -22.5t-30.5 -3.5l-367 79q-16 4 -22.5 16.5z" />
<glyph unicode="&#xda;" horiz-adv-x="1439" d="M117 240q0 -49 18.5 -93.5t51 -77t76.5 -51t93 -18.5h725q49 0 93.5 18.5t76 51t51 76.5t19.5 94v1155q0 16 -11.5 27.5t-27.5 11.5h-285q-16 0 -27.5 -11.5t-11.5 -27.5v-1010q0 -16 -10 -27.5t-26 -11.5h-406q-16 0 -27.5 11.5t-11.5 27.5v1010q0 16 -11 27.5t-28 11.5 h-282q-16 0 -27.5 -11.5t-11.5 -27.5v-1155zM488.5 1653.5q5.5 15.5 19.5 25.5l319 197q14 8 27.5 4t19.5 -20l72 -181q6 -14 0 -26.5t-22 -16.5l-367 -80q-16 -4 -30.5 3.5t-20.5 23.5l-17 41q-6 14 -0.5 29.5z" />
<glyph unicode="&#xdb;" horiz-adv-x="1462" d="M129 240v1155q0 16 11.5 27.5t27.5 11.5h283q16 0 27 -11.5t11 -27.5v-1010q0 -16 11.5 -27.5t27.5 -11.5h406q16 0 26.5 11.5t10.5 27.5v1010q0 16 11 27.5t28 11.5h284q16 0 27.5 -11.5t11.5 -27.5v-1155q0 -49 -19.5 -93.5t-51 -77t-75.5 -51t-93 -18.5h-725 q-49 0 -93.5 18.5t-77 51t-51 76.5t-18.5 94zM359.5 1656.5q5.5 16.5 19.5 24.5l319 197q14 8 33 8t33 -8l319 -197q12 -8 17.5 -24.5t-0.5 -30.5l-17 -41q-4 -14 -18 -20t-31 -2l-268 92q-14 6 -34.5 6t-37.5 -6l-266 -92q-16 -4 -30.5 2t-20.5 20l-17 41q-6 14 -0.5 30.5z " />
<glyph unicode="&#xdc;" horiz-adv-x="1456" d="M127 240v1155q0 16 11.5 27.5t27.5 11.5h283q16 0 27 -11.5t11 -27.5v-1010q0 -16 11.5 -27.5t27.5 -11.5h406q16 0 26.5 11.5t10.5 27.5v1010q0 16 11 27.5t28 11.5h284q16 0 27.5 -11.5t11.5 -27.5v-1155q0 -49 -19.5 -93.5t-51 -77t-75.5 -51t-93 -18.5h-725 q-49 0 -93.5 18.5t-77 51t-51 76.5t-18.5 94zM461 1657q0 43 30.5 73.5t73.5 30.5q41 0 72 -30.5t31 -73.5q0 -41 -31 -72t-72 -31q-43 0 -73.5 31t-30.5 72zM788 1657q0 43 31 73.5t74 30.5q41 0 71.5 -30.5t30.5 -73.5q0 -41 -30.5 -72t-71.5 -31q-43 0 -74 31t-31 72z " />
<glyph unicode="&#xdd;" horiz-adv-x="1417" d="M47.5 1424.5q-6.5 -9.5 1.5 -23.5l459 -836q8 -14 13 -34.5t5 -36.5v-455q0 -16 11.5 -27.5t27.5 -11.5h285q16 0 26.5 11.5t10.5 27.5v455q0 16 5 36.5t13 34.5l461 836q8 14 2 23.5t-22 9.5h-308q-16 0 -32.5 -9.5t-24.5 -23.5l-274 -539l-275 539q-8 14 -23.5 23.5 t-31.5 9.5h-307q-16 0 -22.5 -9.5zM478 1664.5q5 16.5 20 25.5l319 196q12 8 26.5 4t20.5 -20l72 -180q6 -14 0 -26.5t-23 -16.5l-366 -80q-16 -4 -30.5 4t-20.5 22l-17 41q-6 14 -1 30.5z" />
<glyph unicode="&#xf7;" />
<glyph unicode="&#xf8;" />
<glyph unicode="&#x152;" horiz-adv-x="2260" d="M162 240v954q0 49 18.5 93t51 76t76.5 51.5t93 19.5h1596h63q16 0 27.5 -11.5t11.5 -27.5v-117v-61v-80q0 -16 -11 -26.5t-28 -10.5h-145h-426h-115q-8 0 -8 -10v-224q0 -8 8 -8h586q16 0 27.5 -11t11.5 -28v-205q0 -16 -11.5 -27.5t-27.5 -11.5h-586q-8 0 -8 -10v-100 v-2v-119q0 -10 8 -10h86h465h135q39 0 39 -39v-82v-107v-67q0 -39 -39 -39h-116h-818h-725q-49 0 -93 18.5t-76.5 51t-51 76.5t-18.5 94zM522 346h482v739h-482v-739z" />
<glyph unicode="&#x178;" horiz-adv-x="1417" d="M48 1424.5q5 9.5 22 9.5h307q16 0 32.5 -9.5t24.5 -23.5l275 -539l274 539q8 14 24.5 23.5t32.5 9.5h308q16 0 21 -9.5t-3 -23.5l-459 -836q-8 -14 -13 -34.5t-5 -36.5v-455q0 -39 -39 -39h-283q-39 0 -39 39v455q0 16 -5 36.5t-13 34.5l-459 836q-8 14 -3 23.5z M442 1657q0 43 30 73.5t73 30.5t72.5 -30.5t29.5 -73.5q0 -41 -29.5 -72t-72.5 -31t-73 31t-30 72zM770 1657q0 43 29.5 73.5t72.5 30.5t73 -30.5t30 -73.5q0 -41 -30 -72t-73 -31t-72.5 31t-29.5 72z" />
<glyph unicode="&#x2c6;" horiz-adv-x="923" d="M91 1656.5q5 16.5 18 24.5l319 197q14 8 32.5 8t33.5 -8l319 -197q14 -8 19.5 -24.5t-1.5 -30.5l-16 -41q-6 -14 -20.5 -20t-30.5 -2l-266 92q-16 6 -37 6t-35 -6l-268 -92q-16 -4 -30.5 2t-21.5 20l-14 41q-6 14 -1 30.5z" />
<glyph unicode="&#x2dc;" horiz-adv-x="739" d="M72 1608l6 47q4 27 24 33l15 8l274 121q4 2 12 2h7q8 0 20 -9q6 -10 6 -22l-10 -70l209 56q2 0 3 1t5 1q13 -1 19 -11q8 -8 8 -20l-6 -49q-4 -23 -25 -33l-16 -6l-275 -121q-8 -4 -12 -4t-6 2q-12 0 -19 8q-8 8 -6 21l8 69l-207 -53q-2 -2 -8 -2q-12 0 -20 8q-8 12 -6 23 z" />
<glyph unicode="&#x2000;" horiz-adv-x="956" />
<glyph unicode="&#x2001;" horiz-adv-x="1913" />
<glyph unicode="&#x2002;" horiz-adv-x="956" />
<glyph unicode="&#x2003;" horiz-adv-x="1913" />
<glyph unicode="&#x2004;" horiz-adv-x="637" />
<glyph unicode="&#x2005;" horiz-adv-x="478" />
<glyph unicode="&#x2006;" horiz-adv-x="318" />
<glyph unicode="&#x2007;" horiz-adv-x="318" />
<glyph unicode="&#x2008;" horiz-adv-x="239" />
<glyph unicode="&#x2009;" horiz-adv-x="382" />
<glyph unicode="&#x200a;" horiz-adv-x="106" />
<glyph unicode="&#x2010;" horiz-adv-x="843" d="M164 520v271q0 39 39 38h442q16 0 27.5 -11t11.5 -27v-271q0 -16 -11 -27.5t-28 -11.5h-442q-16 0 -27.5 11.5t-11.5 27.5z" />
<glyph unicode="&#x2011;" horiz-adv-x="843" d="M164 520v271q0 39 39 38h442q16 0 27.5 -11t11.5 -27v-271q0 -16 -11 -27.5t-28 -11.5h-442q-16 0 -27.5 11.5t-11.5 27.5z" />
<glyph unicode="&#x2012;" horiz-adv-x="843" d="M164 520v271q0 39 39 38h442q16 0 27.5 -11t11.5 -27v-271q0 -16 -11 -27.5t-28 -11.5h-442q-16 0 -27.5 11.5t-11.5 27.5z" />
<glyph unicode="&#x2013;" horiz-adv-x="1529" d="M164 520v271q0 39 39 38h1126q16 0 27.5 -11t11.5 -27v-271q0 -16 -11 -27.5t-28 -11.5h-1126q-16 0 -27.5 11.5t-11.5 27.5z" />
<glyph unicode="&#x2014;" horiz-adv-x="1841" d="M164 520v271q0 39 39 38h1437q16 0 27.5 -11t11.5 -27v-271q0 -16 -11 -27.5t-28 -11.5h-1437q-16 0 -27.5 11.5t-11.5 27.5z" />
<glyph unicode="&#x2018;" horiz-adv-x="632" d="M133 922v237v47q0 16 6 37t15 35l82 123q10 14 26.5 23.5t32.5 9.5h141q16 0 21.5 -9.5t-4.5 -23.5l-82 -123q-8 -14 -9.5 -23.5t7.5 -9.5h86q16 0 27.5 -11t11.5 -28v-284q0 -16 -11.5 -26.5t-27.5 -10.5h-283q-16 0 -27.5 10t-11.5 27z" />
<glyph unicode="&#x2019;" horiz-adv-x="628" d="M139 1110v285q0 39 39 39h283q39 0 39 -39v-238v-47q0 -16 -5.5 -35.5t-15.5 -34.5l-82 -125q-10 -12 -26.5 -21t-32.5 -9h-141q-16 0 -21.5 9t4.5 21l82 125q8 14 9 23.5t-7 9.5h-86q-16 0 -27.5 10.5t-11.5 26.5z" />
<glyph unicode="&#x201a;" />
<glyph unicode="&#x201c;" horiz-adv-x="1114" d="M150 922v237v47q0 16 6 37t14 35l82 123q10 14 26.5 23.5t32.5 9.5h142q16 0 21 -9.5t-5 -23.5l-82 -123q-8 -14 -9 -23.5t7 -9.5h86q16 0 27.5 -11t11.5 -28v-284q0 -16 -11.5 -26.5t-27.5 -10.5h-283q-16 0 -27 10t-11 27zM600 922v237v47q0 16 6 37t17 35l82 123 q8 14 24 23.5t33 9.5h141q16 0 21.5 -9.5t-2.5 -23.5l-82 -123q-10 -14 -10.5 -23.5t8.5 -9.5h86q16 0 27.5 -11t11.5 -28v-284q0 -16 -11.5 -26.5t-27.5 -10.5h-285q-16 0 -27.5 10t-11.5 27z" />
<glyph unicode="&#x201d;" horiz-adv-x="1114" d="M154 1110v285q0 39 39 39h282q39 0 39 -39v-238v-47q0 -16 -5 -35.5t-15 -34.5l-82 -125q-10 -12 -26.5 -21t-33.5 -9h-141q-16 0 -21.5 9t5.5 21l81 125q8 14 9.5 23.5t-6.5 9.5h-86q-16 0 -27.5 10.5t-11.5 26.5zM604 1110v285q0 16 11.5 27.5t27.5 11.5h285 q16 0 27.5 -11.5t11.5 -27.5v-238v-47q0 -16 -6.5 -35.5t-16.5 -34.5l-80 -125q-10 -12 -26.5 -21t-32.5 -9h-141q-16 0 -21.5 9t2.5 21l82 125q10 14 10 23.5t-8 9.5h-86q-16 0 -27.5 10.5t-11.5 26.5z" />
<glyph unicode="&#x2022;" horiz-adv-x="681" d="M164 399v285q0 16 11 26.5t28 10.5h282q16 0 27.5 -10.5t11.5 -26.5v-285q0 -16 -11 -27.5t-28 -11.5h-282q-16 0 -27.5 11.5t-11.5 27.5z" />
<glyph unicode="&#x2026;" horiz-adv-x="1652" d="M164 39v283q0 39 39 38h282q39 0 39 -38v-283q0 -39 -39 -39h-282q-39 0 -39 39zM647 39v283q0 39 39 38h283q39 0 39 -38v-283q0 -39 -39 -39h-283q-39 0 -39 39zM1130 39v283q0 39 39 38h283q39 0 39 -38v-283q0 -39 -39 -39h-283q-39 0 -39 39z" />
<glyph unicode="&#x202f;" horiz-adv-x="382" />
<glyph unicode="&#x2039;" />
<glyph unicode="&#x205f;" horiz-adv-x="478" />
<glyph unicode="&#x20ac;" />
<glyph unicode="&#x2122;" horiz-adv-x="1699" d="M129 1278v135q0 20 18 21h148h37h143h39h145q20 0 21 -21v-135q0 -20 -21 -21h-145q-18 0 -18 -16v-508q0 -20 -21 -20h-143q-18 0 -19 20v508q0 6 -6 11t-12 5h-148q-18 0 -18 21zM727 733v680q0 10 8 19q2 0 5 1t5 1h3h143h8q10 0 17.5 -6.5t11.5 -12.5l207 -481 l204 481q4 6 10.5 12.5t16.5 6.5h10h144h2q16 -4 16 -21v-678q0 -20 -18 -20h-144q-16 0 -16 20v357q-39 -96 -68 -172q-27 -66 -47 -121.5t-22 -59.5l-4 -6q-2 -6 -10.5 -12t-16.5 -6h-119q-8 0 -15 6t-11 12l-3 6q-2 4 -23.5 59.5t-45.5 121.5l-66 172v-359q0 -10 -6 -15 t-12 -5h-143q-20 0 -21 20z" />
<glyph unicode="&#xe000;" horiz-adv-x="1433" d="M0 0v1434h1434v-1434h-1434z" />
</font>
</defs>
</svg>
